<?xml version="1.0" standalone="no"?>
<!DOCTYPE svg PUBLIC "-//W3C//DTD SVG 20010904//EN"
 "http://www.w3.org/TR/2001/REC-SVG-20010904/DTD/svg10.dtd">
<svg version="1.0" xmlns="http://www.w3.org/2000/svg"
 width="700.000000pt" height="700.000000pt" viewBox="0 0 700.000000 700.000000"
 preserveAspectRatio="xMidYMid meet">
<metadata>
Created by potrace 1.14, written by Peter Selinger 2001-2017
</metadata>
<g transform="translate(0.000000,700.000000) scale(0.100000,-0.100000)"
fill="#000000" stroke="none">
<path d="M410 6795 l0 -205 -205 0 -205 0 0 -620 0 -620 205 0 205 0 0 -205 0
-205 410 0 410 0 0 -205 0 -205 -200 0 -200 0 0 -205 0 -205 -210 0 -210 0 0
-210 0 -210 -205 0 -205 0 0 -820 0 -820 205 0 205 0 0 -205 0 -205 205 0 205
0 0 615 0 615 210 0 210 0 0 -410 0 -410 205 0 205 0 0 1235 0 1235 615 0 615
0 0 -205 0 -205 210 0 210 0 0 -415 0 -415 203 2 202 3 3 413 2 412 1230 0
1230 0 0 205 0 205 -205 0 -205 0 0 205 0 205 -205 0 -205 0 0 205 0 205
-1645 0 -1645 0 0 620 0 620 -205 0 -205 0 0 205 0 205 -620 0 -620 0 0 -205z"/>
<path d="M3710 2675 l0 -615 205 0 205 0 0 615 0 615 -205 0 -205 0 0 -615z"/>
<path d="M5770 2675 l0 -205 410 0 410 0 0 205 0 205 -410 0 -410 0 0 -205z"/>
<path d="M4530 1030 l0 -200 1030 0 1030 0 0 200 0 200 -1030 0 -1030 0 0
-200z"/>
</g>
</svg>
